Coordinates
version=1
nRows=11
nColumns=36
inDegrees=yes

Units are S.I. units (second, meters, Newtons, ...)
If the header above contains a line with 'inDegrees', this indicates whether rotational values are in degrees (yes) or radians (no).

endheader
time	pelvis_tilt	pelvis_list	pelvis_rotation	pelvis_tx	pelvis_ty	pelvis_tz	hip_flexion_r	hip_adduction_r	hip_rotation_r	knee_angle_r	knee_angle_r_beta	ankle_angle_r	subtalar_angle_r	mtp_angle_r	hip_flexion_l	hip_adduction_l	hip_rotation_l	knee_angle_l	knee_angle_l_beta	ankle_angle_l	subtalar_angle_l	mtp_angle_l	lumbar_extension	lumbar_bending	lumbar_rotation	arm_flex_r	arm_add_r	arm_rot_r	elbow_flex_r	pro_sup_r	arm_flex_l	arm_add_l	arm_rot_l	elbow_flex_l	pro_sup_l
      3.66666670	    -16.22172122	     -2.98348615	     -3.54416510	      0.93386028	      0.93882855	     -0.06142921	     26.65213239	     -7.76007068	     -2.86105038	     28.17734285	      0.49178741	     14.78351638	     -8.05730810	     -7.49999987	     34.51489544	    -10.39093843	      1.03947831	     34.83077791	      0.60791176	     17.03970711	      1.63750470	     -7.49999987	     -8.41759847	      1.28699171	      5.11077986	     16.62647768	    -12.74695154	     -5.09504860	     45.72597885	     82.45708868	    190.71023350	   -172.59601841	    178.54938187	     37.38941124	     90.16957894
      3.68333330	    -15.98798823	     -3.07217120	     -3.84841451	      0.93249059	      0.94758443	     -0.06170500	     24.47544731	     -7.36379598	     -3.47434437	     23.99083128	      0.41871900	     12.25220229	     -7.68245166	     -7.49999987	     32.00378921	    -10.50380167	      0.90534458	     30.66984421	      0.53528976	     15.08421128	      1.42017419	     -7.49999987	     -8.76785451	      1.38711122	      4.74789005	     17.40438226	    -12.20683660	     -3.70830204	     48.67461655	     82.90011944	    191.24984603	   -172.88488883	    181.40633407	     41.23907309	     90.31554991
      3.70000000	    -16.20062461	     -3.17408831	     -3.88245545	      0.92714384	      0.95217772	     -0.05946161	     23.46927174	     -6.93113771	     -3.80221484	     21.08974293	      0.36808545	     10.38438557	     -7.62555791	     -7.49999987	     30.57357386	    -10.62154832	      0.93866357	     27.27155634	      0.47597845	     13.84571201	      1.59273571	     -7.49999987	     -8.79983708	      1.45769410	      4.01860933	     17.74992300	    -11.74499187	     -2.36114522	     52.55992332	     83.35979109	    192.18491085	   -172.26709362	    185.91128920	     47.01540170	     90.48945886
      3.71666670	    -16.66209611	     -3.24592023	     -3.83540943	      0.92132897	      0.96129276	     -0.05874711	     23.11053689	     -6.58580503	     -4.07342182	     18.79375869	      0.32801297	      9.03027734	     -7.26668891	     -7.49999987	     30.25338617	    -10.69232996	      1.09152482	     25.08648523	      0.43784176	     12.56081033	      1.69798242	     -7.49999987	     -8.90853734	      1.43971504	      4.22112227	     17.30888210	    -11.67053247	     -2.17466171	     56.84740145	     83.92860580	    193.92394780	   -171.41609212	    192.00172101	     51.60948147	     86.76885226
      3.73333330	    -15.85095249	     -3.32821571	     -3.86830034	      0.92810648	      0.97711532	     -0.05969954	     20.47468034	     -6.20440610	     -4.46070817	     15.14390041	      0.26431092	      7.10131078	     -6.63979809	     -7.49999987	     27.53222240	    -10.55935989	      1.60778391	     21.60532417	      0.37708404	     10.31482123	      0.72496722	     -7.49999987	     -9.75493036	      1.56459098	      3.20104167	     18.11653527	    -11.06469747	      0.21495297	     57.68280850	     84.36375689	    194.65232342	   -171.03386847	    194.05415074	     55.74780895	     86.86153823
      3.75000000	    -15.26119666	     -3.24180918	     -4.00144970	      0.92711857	      0.99099451	     -0.05981302	     17.83110719	     -5.90027175	     -4.63498030	     10.99425990	      0.19188603	      4.92994150	     -5.41594393	     -7.49999987	     25.17792970	    -10.40622162	      1.82321102	     18.25088754	      0.31853808	      7.79652492	      0.17499265	     -7.49999987	    -10.72285309	      1.28810536	      3.76079583	     17.42805699	    -10.84179458	      0.30567955	     59.36734824	     85.36113834	    196.58480095	   -171.14436373	    198.00883323	     57.95694242	     84.97676382
      3.76666670	    -14.63501132	     -3.15447723	     -4.14786499	      0.93189526	      0.98808380	     -0.05534962	     15.49598253	     -5.62241812	     -4.54411661	      7.85967085	      0.13717713	      3.25359814	     -4.89698827	     -7.49999987	     22.71658329	    -10.26223169	      2.01494819	     15.05988440	      0.26284457	      5.93131912	     -0.54154091	     -7.49999987	    -11.26650173	      1.15701353	      3.58599187	     17.17993684	    -10.57637365	      1.75458885	     60.72074064	     86.88309352	    196.99575092	   -171.29271275	    199.90470572	     59.69444642	     85.91858012
      3.78333330	    -14.25998007	     -2.87840299	     -4.33964357	      0.93065584	      0.99025683	     -0.05543998	     13.50045136	     -5.57833888	     -4.42836918	      4.64418957	      0.08105640	      1.66954507	     -4.40766524	     -7.49999987	     20.50075213	     -9.97163874	      2.00398681	     11.75210066	      0.20511285	      4.39546335	     -0.75981915	     -7.49999987	    -11.57757902	      0.85564051	      3.64055524	     16.80687303	    -10.64169509	      2.87605129	     61.55517561	     87.18083614	    196.80410089	   -171.52579749	    201.18981583	     61.60434179	     85.68795696
      3.80000000	    -14.12334757	     -2.69838411	     -4.43186061	      0.92872629	      0.99327263	     -0.04900102	     12.12476746	     -5.38037394	     -4.26877702	      2.30612298	      0.04024944	      0.72726615	     -3.96255188	     -7.49999987	     18.84745357	     -9.90702351	      1.98565969	      8.92308779	      0.15573726	      3.20934211	     -0.73997074	     -7.49999987	    -11.54268191	      0.51764397	      3.68635519	     15.99655650	    -10.63612688	      3.59397352	     62.22130038	     87.39217678	    196.32931682	   -171.68708693	    201.61117792	     63.62765835	     85.44406595
      3.81666670	    -14.03093209	     -2.53899355	     -4.73403343	      0.93228248	      0.99126392	     -0.04572555	     11.31786913	     -5.19175308	     -4.14539667	      0.97799747	      0.01706928	      0.17529060	     -3.87987380	     -7.49999987	     17.27307352	     -9.93549109	      1.91747323	      6.51339743	      0.11368023	      2.23016633	     -0.82282926	     -7.49999987	    -11.28086332	      0.34476643	      3.34941150	     15.25861339	    -10.78774471	      5.39955317	     62.26296153	     84.45767756	    195.32375093	   -171.66761264	    201.17795718	     65.70291159	     82.43011827
      3.83333330	    -14.04990342	     -2.34088017	     -5.05611469	      0.93119193	      0.99006681	     -0.04480113	     11.08548824	     -5.10902326	     -3.84818393	      0.52428664	      0.00915053	      0.06251344	     -4.04751371	     -7.49999987	     16.36688914	     -9.93137044	      1.87074806	      5.10397512	      0.08908117	      1.78989011	     -0.91584170	     -7.49999987	    -10.91031415	      0.17956612	      3.61281616	     13.92512224	    -11.26815061	      5.70741628	     62.33458936	     84.93390174	    194.34408518	   -172.13055877	    200.15260379	     66.39671144	     82.76906966
